<?xml version="1.0" standalone="no"?>
<!DOCTYPE svg PUBLIC "-//W3C//DTD SVG 20010904//EN"
 "http://www.w3.org/TR/2001/REC-SVG-20010904/DTD/svg10.dtd">
<svg version="1.0" xmlns="http://www.w3.org/2000/svg"
 width="512.000000pt" height="512.000000pt" viewBox="0 0 512.000000 512.000000"
 preserveAspectRatio="xMidYMid meet">
<metadata>
Created by potrace 1.14, written by Peter Selinger 2001-2017
</metadata>
<g transform="translate(0.000000,512.000000) scale(0.100000,-0.100000)"
fill="#000000" stroke="none">
<path d="M0 2560 l0 -2560 2560 0 2560 0 0 2560 0 2560 -2560 0 -2560 0 0
-2560z m2580 2255 c0 -8 -4 -15 -10 -15 -5 0 -10 7 -10 15 0 8 5 15 10 15 6 0
10 -7 10 -15z m1900 -115 c0 -5 -4 -10 -10 -10 -5 0 -10 5 -10 10 0 6 5 10 10
10 6 0 10 -4 10 -10z m-350 -90 c0 -5 -4 -10 -10 -10 -5 0 -10 5 -10 10 0 6 5
10 10 10 6 0 10 -4 10 -10z m-2710 -219 c0 -6 -4 -13 -10 -16 -5 -3 -10 1 -10
9 0 9 5 16 10 16 6 0 10 -4 10 -9z m1796 -102 c71 -27 124 -74 160 -143 25
-49 27 -57 15 -80 -8 -13 -11 -33 -9 -44 3 -10 -3 -34 -13 -53 -10 -19 -18
-27 -19 -18 0 9 -6 22 -14 28 -12 10 -17 7 -29 -16 -9 -15 -19 -27 -24 -26 -4
1 -7 -10 -6 -24 1 -15 -5 -32 -15 -39 -15 -12 -15 -12 6 -7 18 4 22 1 22 -16
0 -12 -4 -20 -10 -16 -15 9 -44 -45 -45 -86 0 -22 -6 -44 -13 -51 -7 -7 -12
-19 -12 -28 0 -9 -9 -26 -20 -38 -11 -12 -20 -25 -20 -29 -1 -12 -78 -45 -90
-38 -5 3 -10 0 -10 -8 0 -10 -9 -14 -30 -13 -18 1 -30 -3 -30 -10 0 -8 -18
-11 -56 -10 -64 2 -76 12 -123 111 -139 287 23 668 286 674 23 1 68 -9 99 -20z
m374 6 c0 -8 -4 -15 -10 -15 -5 0 -10 7 -10 15 0 8 5 15 10 15 6 0 10 -7 10
-15z m-820 -1009 c0 -3 -4 -8 -10 -11 -5 -3 -10 -1 -10 4 0 6 5 11 10 11 6 0
10 -2 10 -4z m250 -618 c0 6 7 12 15 12 8 0 15 -5 15 -11 0 -8 4 -8 13 -2 20
15 87 16 87 1 0 -10 3 -9 10 2 9 13 11 13 20 0 7 -11 10 -12 10 -2 0 8 6 12
13 10 6 -3 12 -11 12 -19 0 -8 5 -17 10 -21 6 -5 4 -12 -5 -18 -12 -8 -11 -10
8 -10 13 0 22 6 22 15 0 8 5 15 10 15 6 0 10 -9 10 -20 0 -13 -10 -22 -32 -29
l-33 -10 37 2 c45 1 56 -7 34 -28 -9 -9 -16 -12 -16 -6 0 18 -29 12 -40 -8 -8
-17 -6 -20 21 -26 16 -4 28 -12 26 -18 -5 -16 24 -46 39 -40 8 3 14 0 14 -6 0
-9 -37 -17 -64 -12 -4 1 -14 -3 -20 -9 -7 -5 -16 -7 -19 -3 -4 3 -7 -2 -7 -12
0 -14 3 -15 14 -6 16 13 49 4 40 -11 -4 -6 -10 -5 -15 3 -6 10 -9 10 -9 2 0
-6 5 -15 11 -18 20 -13 -41 -34 -102 -36 -42 -1 -59 -6 -59 -15 0 -8 11 -14
24 -14 14 0 27 -4 30 -9 3 -4 -22 -9 -55 -10 l-60 -1 28 25 c15 13 22 25 16
25 -7 0 -13 -5 -13 -10 0 -6 -11 0 -25 14 -14 14 -38 29 -53 32 -41 10 -48 17
-26 25 16 6 14 8 -15 15 -27 5 -30 9 -17 16 9 5 21 6 28 2 7 -4 8 -3 4 4 -4 7
-18 12 -32 12 -15 0 -24 6 -24 16 0 12 6 14 33 8 39 -9 119 -6 130 5 4 4 -27
8 -70 9 -43 2 -82 7 -87 12 -7 7 -1 10 15 10 14 0 31 6 38 13 11 10 13 10 7 0
-4 -7 -2 -13 3 -13 6 0 11 6 11 14 0 22 -11 46 -22 46 -10 0 -38 25 -38 35 0
3 6 5 13 4 30 -4 47 2 47 17 0 14 3 14 16 3 13 -11 14 -9 9 17 -5 22 -4 25 4
14 7 -10 11 -11 11 -2z m-75 -118 c-3 -5 -12 -10 -18 -10 -7 0 -6 4 3 10 19
12 23 12 15 0z m395 6 c0 -11 -19 -15 -25 -6 -3 5 1 10 9 10 9 0 16 -2 16 -4z
m-455 -26 c-3 -5 -12 -10 -18 -10 -7 0 -6 4 3 10 19 12 23 12 15 0z m370 0 c3
-6 -1 -7 -9 -4 -18 7 -21 14 -7 14 6 0 13 -4 16 -10z m75 -10 c0 -5 -4 -10
-10 -10 -5 0 -10 5 -10 10 0 6 5 10 10 10 6 0 10 -4 10 -10z m-20 -40 c0 -5
-4 -10 -10 -10 -5 0 -10 5 -10 10 0 6 5 10 10 10 6 0 10 -4 10 -10z m-373
-116 c-3 -3 -12 -4 -19 -1 -8 3 -5 6 6 6 11 1 17 -2 13 -5z m263 -54 c0 -5
-10 -10 -22 -10 -19 0 -20 2 -8 10 19 13 30 13 30 0z m97 -11 c-9 -6 -31 -8
-48 -5 -52 8 -45 16 12 16 42 -1 50 -3 36 -11z m-42 -29 c11 -18 -13 -37 -62
-49 -51 -13 -50 -26 2 -23 19 2 35 -2 35 -8 0 -5 -4 -10 -10 -10 -5 0 -7 -7
-4 -15 4 -8 1 -15 -5 -15 -6 0 -11 7 -11 15 0 8 -7 15 -16 15 -13 0 -14 -3 -5
-14 9 -11 8 -15 -5 -20 -23 -9 -27 -8 -20 9 3 8 1 15 -4 15 -6 0 -10 -4 -10
-10 0 -5 -7 -10 -15 -10 -8 0 -12 -6 -9 -14 4 -10 14 -12 42 -5 40 9 94 11 59
2 -10 -3 -16 -10 -14 -16 5 -16 67 -15 67 1 0 6 5 12 10 12 6 0 10 -5 10 -10
0 -6 10 -15 23 -20 20 -8 21 -9 2 -10 -11 -1 -30 -1 -42 0 -13 1 -23 -3 -23
-8 0 -5 -20 -15 -45 -22 -25 -7 -45 -17 -45 -22 0 -5 -9 -4 -19 2 -11 5 -29
10 -40 10 -12 0 -21 5 -21 10 0 6 5 10 10 10 6 0 10 8 10 18 0 11 -3 13 -8 5
-9 -14 -60 -12 -66 2 -2 6 15 19 37 30 40 19 40 20 14 23 -15 2 -27 7 -27 12
0 5 8 7 18 4 16 -5 16 -5 -1 9 -16 13 -16 15 -1 21 28 11 35 7 29 -16 -3 -13
-3 -18 2 -12 4 6 17 15 27 21 17 9 15 12 -17 22 -20 7 -44 12 -54 11 -30 -4
-43 0 -43 10 0 6 8 10 18 10 10 0 22 3 26 8 22 22 190 40 201 22z m-207 -5
c-9 -9 -68 -12 -68 -4 0 5 17 9 37 9 20 0 34 -2 31 -5z m297 -225 c-3 -5 -11
-10 -16 -10 -6 0 -7 5 -4 10 3 6 11 10 16 10 6 0 7 -4 4 -10z m-265 -10 c11
-7 6 -8 -19 -5 -18 2 -36 6 -39 9 -9 10 42 6 58 -4z m35 -40 c36 0 81 7 101
15 39 16 80 10 49 -8 -14 -8 -15 -11 -4 -18 10 -6 8 -9 -8 -9 -13 0 -23 5 -23
11 0 8 -5 8 -15 -1 -20 -16 -10 -30 23 -31 l27 -1 -25 -8 c-35 -11 -120 -12
-120 -1 0 11 -89 43 -101 35 -5 -3 -9 2 -9 10 0 9 -5 16 -11 16 -5 0 -7 5 -4
11 5 7 15 5 31 -5 15 -11 46 -16 89 -16z m195 0 c-24 -15 -36 -11 -14 4 10 8
21 12 24 10 2 -3 -2 -9 -10 -14z m-240 -70 c0 -5 -5 -10 -11 -10 -5 0 -7 5 -4
10 3 6 8 10 11 10 2 0 4 -4 4 -10z m105 -24 c22 -8 60 -15 85 -16 l45 0 -44
-20 c-28 -13 -41 -25 -38 -34 3 -7 1 -18 -5 -24 -6 -6 -1 -8 16 -5 14 3 26 1
26 -5 0 -13 -35 -22 -85 -22 -39 1 -39 1 -16 14 15 8 20 16 12 20 -16 10 -14
26 4 26 8 0 15 5 15 11 0 5 -4 7 -10 4 -5 -3 -19 -1 -29 5 -11 6 -44 11 -73
13 -39 1 -54 6 -56 18 -2 13 6 15 55 11 55 -4 57 -3 38 13 l-20 16 20 -5 c11
-2 38 -12 60 -20z m155 -16 c0 -5 -4 -10 -10 -10 -5 0 -10 5 -10 10 0 6 5 10
10 10 6 0 10 -4 10 -10z m-40 -52 c0 -4 -9 -8 -20 -8 -11 0 -23 0 -27 -1 -4 0
-9 4 -11 9 -1 5 11 9 28 9 16 0 30 -4 30 -9z m-160 -24 c0 -9 -5 -12 -12 -8
-6 4 -30 7 -52 7 -38 -1 -39 0 -11 7 51 13 75 11 75 -6z m110 -124 c0 -5 -8
-10 -17 -10 -15 0 -16 2 -3 10 19 12 20 12 20 0z m100 -41 c0 -8 -82 -19 -92
-13 -5 3 -6 9 -3 13 5 10 95 9 95 0z m-121 -10 c-18 -11 -39 -11 -39 0 0 5 12
9 26 9 18 0 22 -3 13 -9z m168 5 c-3 -3 -12 -4 -19 -1 -8 3 -5 6 6 6 11 1 17
-2 13 -5z m-127 -64 c0 -5 -10 -10 -22 -9 -22 0 -22 1 -3 9 11 5 21 9 23 9 1
1 2 -3 2 -9z m-50 -50 c-14 -8 -5 -30 11 -30 6 0 7 5 4 10 -4 6 6 10 22 10 15
0 35 5 43 11 13 9 12 10 -2 5 -22 -7 -24 10 -2 18 26 10 36 7 30 -9 -3 -8 0
-15 6 -15 23 0 0 -11 -54 -25 -41 -10 -71 -12 -119 -5 -35 5 -68 10 -74 10 -5
0 -2 7 9 15 11 8 30 12 46 8 17 -3 31 0 35 8 5 8 4 10 -3 5 -7 -4 -17 -4 -24
0 -8 5 -6 9 7 14 24 8 83 -19 65 -30z m-130 11 c0 -16 -30 -33 -46 -27 -13 5
-14 9 -4 21 13 16 50 21 50 6z m110 -60 c34 -6 41 -10 27 -16 -23 -10 -127 1
-140 14 -13 13 43 14 113 2z m70 -30 c0 -5 -7 -11 -15 -15 -15 -5 -20 5 -8 17
9 10 23 9 23 -2z m-40 -11 c0 -12 -17 -12 -45 0 -17 7 -15 9 13 9 17 1 32 -3
32 -9z m-45 -40 c3 -5 1 -10 -4 -10 -6 0 -11 5 -11 10 0 6 2 10 4 10 3 0 8 -4
11 -10z m-115 -94 c0 -3 -4 -8 -10 -11 -5 -3 -10 -1 -10 4 0 6 5 11 10 11 6 0
10 -2 10 -4z m87 -42 c-3 -3 -12 -4 -19 -1 -8 3 -5 6 6 6 11 1 17 -2 13 -5z
m161 -9 c29 0 28 -3 -5 -16 -38 -15 -61 -19 -110 -23 -43 -3 -62 -11 -51 -22
3 -3 15 0 26 7 17 11 23 10 38 -6 17 -17 17 -18 2 -12 -11 4 -18 2 -19 -6 0
-7 -2 -8 -5 -1 -2 6 -18 9 -34 6 -17 -2 -47 -1 -67 3 l-38 7 40 19 c22 9 32
18 23 18 -10 1 -18 5 -18 10 0 6 16 7 35 4 22 -3 35 -2 35 5 0 14 37 20 85 13
22 -3 50 -5 63 -6z m-193 -95 c3 -5 -3 -10 -14 -10 -12 0 -21 5 -21 10 0 6 6
10 14 10 8 0 18 -4 21 -10z m-118 -56 c-3 -3 -12 -4 -19 -1 -8 3 -5 6 6 6 11
1 17 -2 13 -5z m63 -60 c0 -2 -12 -4 -27 -4 -21 0 -24 3 -14 9 13 8 41 5 41
-5z m-70 -174 c13 -9 13 -10 0 -9 -8 0 -24 4 -35 9 l-20 9 20 0 c11 0 27 -4
35 -9z m-245 -100 c3 -5 1 -10 -4 -10 -6 0 -11 5 -11 10 0 6 2 10 4 10 3 0 8
-4 11 -10z m505 -70 c-8 -5 -19 -10 -25 -10 -5 0 -3 5 5 10 8 5 20 10 25 10 6
0 3 -5 -5 -10z m130 -100 c12 -8 11 -10 -7 -10 -13 0 -23 5 -23 10 0 13 11 13
30 0z m-150 -21 c44 -23 59 -39 37 -39 -7 0 -23 9 -35 20 -12 11 -28 20 -37
20 -8 0 -15 5 -15 10 0 14 4 13 50 -11z m595 11 c-3 -5 -14 -10 -23 -9 -14 0
-13 2 3 9 27 11 27 11 20 0z m52 -6 c-3 -3 -12 -4 -19 -1 -8 3 -5 6 6 6 11 1
17 -2 13 -5z m-448 -18 c10 -12 8 -13 -9 -9 -25 7 -37 23 -17 23 8 0 20 -6 26
-14z m496 -24 c-3 -3 -11 0 -18 7 -9 10 -8 11 6 5 10 -3 15 -9 12 -12z m-766
-45 c1 -5 -3 -5 -9 -2 -5 3 -10 16 -9 28 0 21 1 21 9 2 5 -11 9 -24 9 -28z
m81 3 c0 -5 -4 -10 -9 -10 -6 0 -13 5 -16 10 -3 6 1 10 9 10 9 0 16 -4 16 -10z
m275 -10 c-3 -5 -12 -10 -18 -10 -7 0 -6 4 3 10 19 12 23 12 15 0z m-170 -30
c4 -6 -6 -10 -22 -9 -25 0 -26 1 -8 9 11 5 21 9 22 9 1 1 5 -3 8 -9z m-320
-40 c3 -5 -1 -10 -9 -10 -9 0 -16 5 -16 10 0 6 4 10 9 10 6 0 13 -4 16 -10z
m865 3 c-57 -18 -70 -21 -70 -13 0 5 8 11 18 13 23 6 71 7 52 0z m80 -13 c0
-5 -2 -10 -4 -10 -3 0 -8 5 -11 10 -3 6 -1 10 4 10 6 0 11 -4 11 -10z m-1310
-20 c0 -5 -2 -10 -4 -10 -3 0 -8 5 -11 10 -3 6 -1 10 4 10 6 0 11 -4 11 -10z
m710 -10 c13 -9 13 -10 0 -10 -8 0 -22 5 -30 10 -13 9 -13 10 0 10 8 0 22 -5
30 -10z m130 0 c0 -5 -4 -10 -10 -10 -5 0 -10 5 -10 10 0 6 5 10 10 10 6 0 10
-4 10 -10z m-420 -20 c0 -5 -7 -7 -15 -4 -8 4 -15 8 -15 10 0 2 7 4 15 4 8 0
15 -4 15 -10z m-95 -10 c3 -5 1 -10 -4 -10 -6 0 -11 5 -11 10 0 6 2 10 4 10 3
0 8 -4 11 -10z m235 -10 c0 -5 -2 -10 -4 -10 -3 0 -8 5 -11 10 -3 6 -1 10 4
10 6 0 11 -4 11 -10z m120 0 c0 -5 -10 -10 -22 -10 -19 0 -20 2 -8 10 19 13
30 13 30 0z m768 -9 c11 -7 11 -9 -1 -14 -9 -3 -18 1 -21 9 -6 16 2 18 22 5z
m-1408 -21 c0 -5 -2 -10 -4 -10 -3 0 -8 5 -11 10 -3 6 -1 10 4 10 6 0 11 -4
11 -10z m724 -9 c4 -5 -3 -7 -14 -4 -23 6 -26 13 -6 13 8 0 17 -4 20 -9z
m-633 -39 c-7 -2 -18 1 -23 6 -8 8 -4 9 13 5 13 -4 18 -8 10 -11z m214 8 c3
-5 0 -10 -9 -10 -8 0 -22 -3 -32 -7 -16 -6 -17 -5 -4 10 17 19 36 22 45 7z
m325 0 c0 -5 -2 -10 -4 -10 -3 0 -8 5 -11 10 -3 6 -1 10 4 10 6 0 11 -4 11
-10z m153 3 c-7 -2 -19 -2 -25 0 -7 3 -2 5 12 5 14 0 19 -2 13 -5z m514 -39
c-3 -3 -12 -4 -19 -1 -8 3 -5 6 6 6 11 1 17 -2 13 -5z m-792 -14 c-3 -5 -14
-10 -23 -10 -15 0 -15 2 -2 10 20 13 33 13 25 0z m-55 -12 c0 -10 -39 -9 -65
2 -14 5 -8 7 22 6 24 0 43 -4 43 -8z m145 -78 c4 -6 -7 -10 -27 -9 -27 0 -30
2 -13 9 27 12 33 12 40 0z m-490 -80 c8 -13 -5 -13 -25 0 -13 8 -13 10 2 10 9
0 20 -4 23 -10z"/>
<path d="M2980 2610 c-13 -8 -12 -10 3 -10 9 0 17 5 17 10 0 12 -1 12 -20 0z"/>
<path d="M3053 2363 c9 -2 23 -2 30 0 6 3 -1 5 -18 5 -16 0 -22 -2 -12 -5z"/>
<path d="M3225 2250 c-3 -5 -2 -10 4 -10 5 0 13 5 16 10 3 6 2 10 -4 10 -5 0
-13 -4 -16 -10z"/>
<path d="M3178 2109 c16 -18 15 -34 -2 -20 -10 9 -16 7 -27 -5 -11 -14 -9 -15
17 -12 21 2 29 8 29 22 0 11 -7 21 -15 24 -12 4 -13 2 -2 -9z"/>
</g>
</svg>
